<svg width="64" height="37" viewBox="0 0 64 37" fill="none" xmlns="http://www.w3.org/2000/svg">
<path d="M0.272032 15.8V1.44H3.25203C5.29203 1.44 6.78537 1.59333 7.73203 1.9C8.69203 2.19333 9.5187 2.66667 10.212 3.32C10.9054 3.96 11.4387 4.74667 11.812 5.68C12.1854 6.61333 12.372 7.70667 12.372 8.96C12.372 10.2 12.0787 11.3733 11.492 12.48C10.9187 13.5733 10.132 14.4 9.13203 14.96C8.14537 15.52 6.7187 15.8 4.85203 15.8H0.272032ZM1.65203 14.44H3.31203C5.04537 14.44 6.2987 14.3533 7.07203 14.18C7.8587 14.0067 8.54537 13.6667 9.13203 13.16C9.7187 12.64 10.1654 12.0133 10.472 11.28C10.7787 10.5467 10.932 9.70667 10.932 8.76C10.932 7.81333 10.752 6.94 10.392 6.14C10.0454 5.34 9.54537 4.68 8.89203 4.16C8.2387 3.64 7.46537 3.29333 6.57203 3.12C5.69203 2.93333 4.39203 2.84 2.67203 2.84H1.65203V14.44ZM17.0348 1.44H18.4948V7.46H25.7948V1.44H27.2348V15.8H25.7948V8.86H18.4948V15.8H17.0348V1.44ZM38.4872 0.859999L45.1872 15.8H43.6472L41.3872 10.9H35.1872L32.9472 15.8H31.3472L38.1272 0.859999H38.4872ZM38.3072 4.04L35.8472 9.44H40.7472L38.3072 4.04ZM49.3519 1.44H52.1919C53.6985 1.44 54.8385 1.74667 55.6119 2.36C56.3985 2.96 56.7919 3.82667 56.7919 4.96C56.7919 5.58667 56.6319 6.16667 56.3119 6.7C56.0052 7.22 55.5519 7.64 54.9519 7.96C55.9385 8.28 56.6852 8.76 57.1919 9.4C57.7119 10.04 57.9719 10.8 57.9719 11.68C57.9719 12.8667 57.5385 13.8533 56.6719 14.64C55.8052 15.4133 54.6852 15.8 53.3119 15.8H49.3519V1.44ZM50.7719 2.84V7.44H51.5919C52.8452 7.44 53.7785 7.24 54.3919 6.84C55.0052 6.44 55.3119 5.81333 55.3119 4.96C55.3119 3.54667 54.3519 2.84 52.4319 2.84H50.7719ZM50.7719 8.88V14.4H52.5519C53.5785 14.4 54.3319 14.3 54.8119 14.1C55.3052 13.8867 55.7052 13.5667 56.0119 13.14C56.3185 12.7 56.4719 12.2533 56.4719 11.8C56.4719 11.3467 56.3852 10.9467 56.2119 10.6C56.0385 10.2533 55.7785 9.94667 55.4319 9.68C55.0985 9.41333 54.6919 9.21333 54.2119 9.08C53.7452 8.94667 52.8652 8.88 51.5719 8.88H50.7719ZM62.4963 1.44H63.9363V15.8H62.4963V1.44ZM3.72448 27.664H5.42848C6.33248 27.664 7.01648 27.848 7.48048 28.216C7.95248 28.576 8.18848 29.096 8.18848 29.776C8.18848 30.152 8.09248 30.5 7.90048 30.82C7.71648 31.132 7.44448 31.384 7.08448 31.576C7.67648 31.768 8.12448 32.056 8.42849 32.44C8.74049 32.824 8.89649 33.28 8.89649 33.808C8.89649 34.52 8.63648 35.112 8.11648 35.584C7.59648 36.048 6.92448 36.28 6.10048 36.28H3.72448V27.664ZM4.57648 28.504V31.264H5.06848C5.82048 31.264 6.38048 31.144 6.74848 30.904C7.11648 30.664 7.30048 30.288 7.30048 29.776C7.30048 28.928 6.72448 28.504 5.57248 28.504H4.57648ZM4.57648 32.128V35.44H5.64448C6.26048 35.44 6.71248 35.38 7.00048 35.26C7.29648 35.132 7.53648 34.94 7.72048 34.684C7.90448 34.42 7.99648 34.152 7.99648 33.88C7.99648 33.608 7.94448 33.368 7.84048 33.16C7.73648 32.952 7.58048 32.768 7.37248 32.608C7.17248 32.448 6.92848 32.328 6.64048 32.248C6.36048 32.168 5.83248 32.128 5.05648 32.128H4.57648ZM11.7671 27.664H12.6311V32.86C12.6311 33.396 12.6431 33.8 12.6671 34.072C12.6991 34.344 12.7951 34.608 12.9551 34.864C13.1231 35.112 13.3551 35.312 13.6511 35.464C13.9471 35.608 14.2631 35.68 14.5991 35.68C14.9431 35.68 15.2431 35.62 15.4991 35.5C15.7551 35.372 15.9711 35.196 16.1471 34.972C16.3231 34.748 16.4431 34.504 16.5071 34.24C16.5791 33.968 16.6151 33.508 16.6151 32.86V27.664H17.4671V32.86C17.4671 33.732 17.3791 34.4 17.2031 34.864C17.0271 35.328 16.7151 35.716 16.2671 36.028C15.8271 36.34 15.3071 36.496 14.7071 36.496C14.2271 36.496 13.7951 36.42 13.4111 36.268C13.0271 36.108 12.7071 35.888 12.4511 35.608C12.1951 35.328 12.0151 35.016 11.9111 34.672C11.8151 34.328 11.7671 33.724 11.7671 32.86V27.664ZM19.8464 34.672L20.5784 34.24C21.0904 35.184 21.6864 35.656 22.3664 35.656C22.8064 35.656 23.1824 35.516 23.4944 35.236C23.8064 34.956 23.9624 34.608 23.9624 34.192C23.9624 33.864 23.8304 33.532 23.5664 33.196C23.3024 32.86 22.8624 32.464 22.2464 32.008C21.6384 31.544 21.2264 31.2 21.0104 30.976C20.8024 30.744 20.6464 30.5 20.5424 30.244C20.4464 29.98 20.3984 29.716 20.3984 29.452C20.3984 28.892 20.5944 28.42 20.9864 28.036C21.3864 27.644 21.8864 27.448 22.4864 27.448C22.9584 27.448 23.3704 27.568 23.7224 27.808C24.0744 28.04 24.4144 28.388 24.7424 28.852L24.0464 29.392C23.8224 29.088 23.5904 28.836 23.3504 28.636C23.1104 28.436 22.8144 28.336 22.4624 28.336C22.1184 28.336 21.8344 28.44 21.6104 28.648C21.3944 28.856 21.2864 29.12 21.2864 29.44C21.2864 29.76 21.3824 30.04 21.5744 30.28C21.7744 30.512 22.2184 30.884 22.9064 31.396C23.6024 31.908 24.1064 32.38 24.4184 32.812C24.7384 33.244 24.8984 33.7 24.8984 34.18C24.8984 34.804 24.6544 35.348 24.1664 35.812C23.6864 36.268 23.1264 36.496 22.4864 36.496C21.3584 36.496 20.4784 35.888 19.8464 34.672ZM27.731 27.664H28.595V36.28H27.731V27.664ZM31.71 36.28V27.664H31.902L37.626 34.264V27.664H38.478V36.28H38.286L32.598 29.764V36.28H31.71ZM41.7328 27.664H46.6768V28.516H42.5968V31.204H46.6408V32.044H42.5968V35.428H46.6408V36.28H41.7328V27.664ZM48.4064 34.672L49.1384 34.24C49.6504 35.184 50.2464 35.656 50.9264 35.656C51.3664 35.656 51.7424 35.516 52.0544 35.236C52.3664 34.956 52.5224 34.608 52.5224 34.192C52.5224 33.864 52.3904 33.532 52.1264 33.196C51.8624 32.86 51.4224 32.464 50.8064 32.008C50.1984 31.544 49.7864 31.2 49.5704 30.976C49.3624 30.744 49.2064 30.5 49.1024 30.244C49.0064 29.98 48.9584 29.716 48.9584 29.452C48.9584 28.892 49.1544 28.42 49.5464 28.036C49.9464 27.644 50.4464 27.448 51.0464 27.448C51.5184 27.448 51.9304 27.568 52.2824 27.808C52.6344 28.04 52.9744 28.388 53.3024 28.852L52.6064 29.392C52.3824 29.088 52.1504 28.836 51.9104 28.636C51.6704 28.436 51.3744 28.336 51.0224 28.336C50.6784 28.336 50.3944 28.44 50.1704 28.648C49.9544 28.856 49.8464 29.12 49.8464 29.44C49.8464 29.76 49.9424 30.04 50.1344 30.28C50.3344 30.512 50.7784 30.884 51.4664 31.396C52.1624 31.908 52.6664 32.38 52.9784 32.812C53.2984 33.244 53.4584 33.7 53.4584 34.18C53.4584 34.804 53.2144 35.348 52.7264 35.812C52.2464 36.268 51.6864 36.496 51.0464 36.496C49.9184 36.496 49.0384 35.888 48.4064 34.672ZM55.523 34.672L56.255 34.24C56.767 35.184 57.363 35.656 58.043 35.656C58.483 35.656 58.859 35.516 59.171 35.236C59.483 34.956 59.639 34.608 59.639 34.192C59.639 33.864 59.507 33.532 59.243 33.196C58.979 32.86 58.539 32.464 57.923 32.008C57.315 31.544 56.903 31.2 56.687 30.976C56.479 30.744 56.323 30.5 56.219 30.244C56.123 29.98 56.075 29.716 56.075 29.452C56.075 28.892 56.271 28.42 56.663 28.036C57.063 27.644 57.563 27.448 58.163 27.448C58.635 27.448 59.047 27.568 59.399 27.808C59.751 28.04 60.091 28.388 60.419 28.852L59.723 29.392C59.499 29.088 59.267 28.836 59.027 28.636C58.787 28.436 58.491 28.336 58.139 28.336C57.795 28.336 57.511 28.44 57.287 28.648C57.071 28.856 56.963 29.12 56.963 29.44C56.963 29.76 57.059 30.04 57.251 30.28C57.451 30.512 57.895 30.884 58.583 31.396C59.279 31.908 59.783 32.38 60.095 32.812C60.415 33.244 60.575 33.7 60.575 34.18C60.575 34.804 60.331 35.348 59.843 35.812C59.363 36.268 58.803 36.496 58.163 36.496C57.035 36.496 56.155 35.888 55.523 34.672Z" fill="#4D4D4D"/>
</svg>
