<svg width="65" height="16" viewBox="0 0 65 16" fill="none" xmlns="http://www.w3.org/2000/svg">
<path d="M0.74 15.8V1.44H3.72C5.76 1.44 7.25333 1.59333 8.2 1.9C9.16 2.19333 9.98667 2.66667 10.68 3.32C11.3733 3.96 11.9067 4.74667 12.28 5.68C12.6533 6.61333 12.84 7.70667 12.84 8.96C12.84 10.2 12.5467 11.3733 11.96 12.48C11.3867 13.5733 10.6 14.4 9.6 14.96C8.61333 15.52 7.18667 15.8 5.32 15.8H0.74ZM2.12 14.44H3.78C5.51333 14.44 6.76667 14.3533 7.54 14.18C8.32667 14.0067 9.01333 13.6667 9.6 13.16C10.1867 12.64 10.6333 12.0133 10.94 11.28C11.2467 10.5467 11.4 9.70667 11.4 8.76C11.4 7.81333 11.22 6.94 10.86 6.14C10.5133 5.34 10.0133 4.68 9.36 4.16C8.70667 3.64 7.93333 3.29333 7.04 3.12C6.16 2.93333 4.86 2.84 3.14 2.84H2.12V14.44ZM17.5028 1.44H18.9628V7.46H26.2628V1.44H27.7028V15.8H26.2628V8.86H18.9628V15.8H17.5028V1.44ZM38.9552 0.859999L45.6552 15.8H44.1152L41.8552 10.9H35.6552L33.4152 15.8H31.8152L38.5952 0.859999H38.9552ZM38.7752 4.04L36.3152 9.44H41.2152L38.7752 4.04ZM49.8198 1.44H52.6598C54.1665 1.44 55.3065 1.74667 56.0798 2.36C56.8665 2.96 57.2598 3.82667 57.2598 4.96C57.2598 5.58667 57.0998 6.16667 56.7798 6.7C56.4732 7.22 56.0198 7.64 55.4198 7.96C56.4065 8.28 57.1532 8.76 57.6598 9.4C58.1798 10.04 58.4398 10.8 58.4398 11.68C58.4398 12.8667 58.0065 13.8533 57.1398 14.64C56.2732 15.4133 55.1532 15.8 53.7798 15.8H49.8198V1.44ZM51.2398 2.84V7.44H52.0598C53.3132 7.44 54.2465 7.24 54.8598 6.84C55.4732 6.44 55.7798 5.81333 55.7798 4.96C55.7798 3.54667 54.8198 2.84 52.8998 2.84H51.2398ZM51.2398 8.88V14.4H53.0198C54.0465 14.4 54.7998 14.3 55.2798 14.1C55.7732 13.8867 56.1732 13.5667 56.4798 13.14C56.7865 12.7 56.9398 12.2533 56.9398 11.8C56.9398 11.3467 56.8532 10.9467 56.6798 10.6C56.5065 10.2533 56.2465 9.94667 55.8998 9.68C55.5665 9.41333 55.1598 9.21333 54.6798 9.08C54.2132 8.94667 53.3332 8.88 52.0398 8.88H51.2398ZM62.9642 1.44H64.4042V15.8H62.9642V1.44Z" fill="#4D4D4D"/>
</svg>
