<svg width="15" height="11" viewBox="0 0 15 11" fill="none" xmlns="http://www.w3.org/2000/svg">
<path d="M3.5 10.5C3.5 10.6326 3.44732 10.7598 3.35355 10.8536C3.25978 10.9473 3.13261 11 3 11C2.86739 11 2.74021 10.9473 2.64645 10.8536C2.55268 10.7598 2.5 10.6326 2.5 10.5V1.70703L1.354 2.85403C1.30751 2.90052 1.25232 2.93739 1.19158 2.96255C1.13084 2.98771 1.06574 3.00066 0.999998 3.00066C0.934254 3.00066 0.869154 2.98771 0.808415 2.96255C0.747675 2.93739 0.692486 2.90052 0.645998 2.85403C0.59951 2.80754 0.562634 2.75235 0.537475 2.69161C0.512316 2.63087 0.499367 2.56577 0.499367 2.50003C0.499367 2.43428 0.512316 2.36918 0.537475 2.30844C0.562634 2.2477 0.59951 2.19252 0.645998 2.14603L2.646 0.147028L2.653 0.140028C2.747 0.0487311 2.8732 -0.00183726 3.00423 -0.000714105C3.13526 0.000409047 3.26058 0.053133 3.353 0.146028L5.353 2.14603C5.39949 2.19245 5.43638 2.24757 5.46156 2.30825C5.48674 2.36893 5.49973 2.43398 5.49978 2.49967C5.49982 2.56537 5.48693 2.63044 5.46183 2.69115C5.43673 2.75186 5.39992 2.80704 5.3535 2.85353C5.30708 2.90002 5.25195 2.93691 5.19127 2.96209C5.13059 2.98727 5.06555 3.00026 4.99985 3.00031C4.93415 3.00035 4.86909 2.98746 4.80838 2.96236C4.74766 2.93726 4.69249 2.90045 4.646 2.85403L3.5 1.70703V10.5ZM7 1.50003C7 1.36742 7.05268 1.24024 7.14645 1.14647C7.24021 1.05271 7.36739 1.00003 7.5 1.00003H14.5C14.6326 1.00003 14.7598 1.05271 14.8536 1.14647C14.9473 1.24024 15 1.36742 15 1.50003C15 1.63264 14.9473 1.75981 14.8536 1.85358C14.7598 1.94735 14.6326 2.00003 14.5 2.00003H7.5C7.36739 2.00003 7.24021 1.94735 7.14645 1.85358C7.05268 1.75981 7 1.63264 7 1.50003ZM7.5 4.00003C7.36739 4.00003 7.24021 4.05271 7.14645 4.14647C7.05268 4.24024 7 4.36742 7 4.50003C7 4.63264 7.05268 4.75981 7.14645 4.85358C7.24021 4.94735 7.36739 5.00003 7.5 5.00003H12.5C12.6326 5.00003 12.7598 4.94735 12.8536 4.85358C12.9473 4.75981 13 4.63264 13 4.50003C13 4.36742 12.9473 4.24024 12.8536 4.14647C12.7598 4.05271 12.6326 4.00003 12.5 4.00003H7.5ZM7.5 7.00003C7.36739 7.00003 7.24021 7.05271 7.14645 7.14647C7.05268 7.24024 7 7.36742 7 7.50003C7 7.63264 7.05268 7.75981 7.14645 7.85358C7.24021 7.94735 7.36739 8.00003 7.5 8.00003H10.5C10.6326 8.00003 10.7598 7.94735 10.8536 7.85358C10.9473 7.75981 11 7.63264 11 7.50003C11 7.36742 10.9473 7.24024 10.8536 7.14647C10.7598 7.05271 10.6326 7.00003 10.5 7.00003H7.5ZM7.5 10C7.36739 10 7.24021 10.0527 7.14645 10.1465C7.05268 10.2402 7 10.3674 7 10.5C7 10.6326 7.05268 10.7598 7.14645 10.8536C7.24021 10.9473 7.36739 11 7.5 11H8.5C8.63261 11 8.75978 10.9473 8.85355 10.8536C8.94732 10.7598 9 10.6326 9 10.5C9 10.3674 8.94732 10.2402 8.85355 10.1465C8.75978 10.0527 8.63261 10 8.5 10H7.5Z" fill="#818181"/>
</svg>
