<svg width="120" height="200" viewBox="0 0 120 200" fill="none" xmlns="http://www.w3.org/2000/svg">
<g clip-path="url(#clip0_388_31307)">
<path fill-rule="evenodd" clip-rule="evenodd" d="M0 71.8503C1.53894 63.4147 12.8599 62.6312 19.8828 66.1874C17.7753 64.6002 15.3664 63.5353 12.8513 63.0072C15.3176 52.4792 36.8197 64.1065 48.7522 59.339C46.9204 62.7316 42.2175 65.7109 38.1634 67.9382C62.7664 59.3046 95.5808 25.611 73.9725 0C101.619 13.1141 98.2912 38.9547 81.5322 60.5962C66.7429 79.6918 46.6649 92.3753 42.6281 102.832C40.2421 109.023 41.537 115.165 49.1226 121.741C30.5836 118.038 29.7768 99.2036 37.2073 88.5464C33.5523 91.1095 29.0188 98.4975 29.8342 107.071C28.0684 102.938 28.1172 98.6267 28.5307 94.4103C30.6984 72.2723 4.95562 65.487 0 71.8503Z" fill="url(#paint0_linear_388_31307)"/>
<path fill-rule="evenodd" clip-rule="evenodd" d="M72.1899 125.32C59.8353 128.884 41.4025 117.9 46.3409 104.694C49.4245 96.4365 60.3809 89.0169 66.2983 84.0055C86.1983 67.1315 107.212 47.1404 102.142 20.6597C122.22 44.7753 109.515 72.4529 72.1181 94.6081C92.8565 87.9205 114.212 71.1182 118.249 51.6323C127.023 80.3517 100.97 92.7855 82.0552 102.897C74.6074 106.884 66.6256 111.146 64.9316 115.704C63.7918 118.778 64.923 123.709 72.1928 125.322L72.1899 125.32Z" fill="url(#paint1_linear_388_31307)"/>
</g>
<path d="M14.1687 171.513C14.1687 170.722 14.0823 170.179 13.9094 169.883C13.7612 169.586 13.5513 169.401 13.2796 169.327C12.8844 169.228 12.5634 169.105 12.3164 168.956C12.0941 168.784 11.983 168.524 11.983 168.178C11.983 167.561 12.4275 167.252 13.3166 167.252H18.2068C19.1947 167.252 20.306 167.289 21.5409 167.363C22.7758 167.413 23.8008 167.512 24.6158 167.66C27.0361 168.129 28.9996 169.413 30.5061 171.513C32.0127 173.587 32.766 176.687 32.766 180.811C32.766 183.651 32.3955 185.924 31.6546 187.628C30.9137 189.307 29.9258 190.629 28.6909 191.592C27.5301 192.506 26.2088 193.16 24.7269 193.555C23.2698 193.926 21.4792 194.111 19.3552 194.111H14.1687V171.513ZM20.763 191.481C23.0598 191.481 24.9492 190.629 26.431 188.924C27.9129 187.196 28.6538 184.491 28.6538 180.811C28.6538 177.23 28.0364 174.513 26.8015 172.661C25.5666 170.809 23.7267 169.883 21.2816 169.883H19.6516C18.639 169.883 18.1327 170.339 18.1327 171.253V190.147C18.1327 191.036 18.639 191.481 19.6516 191.481H20.763ZM40.8446 194.111H36.8806V171.55C36.8806 170.784 36.8188 170.265 36.6954 169.994C36.5966 169.722 36.399 169.524 36.1026 169.401C35.6828 169.253 35.2999 169.129 34.9542 169.03C34.6084 168.932 34.4355 168.685 34.4355 168.29C34.4355 167.623 34.9171 167.289 35.8803 167.289H39.4738C40.3876 167.289 40.8446 167.684 40.8446 168.475V178.551H50.3655V167.252H54.3665V194.111H50.3655V181.293H40.8446V194.111ZM73.7812 194.111L71.0769 185.59H63.2971L60.5927 194.111H56.777L63.9269 172.031C64.3221 170.747 64.4703 170.006 64.3715 169.808C64.2727 169.586 64.0381 169.426 63.6676 169.327C63.1983 169.228 62.8279 169.105 62.5562 168.956C62.3092 168.784 62.1857 168.512 62.1857 168.141C62.1857 167.549 62.6426 167.252 63.5564 167.252H69.0393L78.0045 194.111H73.7812ZM70.1877 182.849L67.1129 173.328L64.1121 182.849H70.1877ZM84.8235 171.216V178.551H88.4541C89.8371 178.551 90.9238 178.206 91.7142 177.514C92.5045 176.823 92.8996 175.699 92.8996 174.143C92.8996 172.785 92.4551 171.735 91.566 170.994C90.6769 170.253 89.5531 169.883 88.1948 169.883H86.3054C85.3175 169.883 84.8235 170.327 84.8235 171.216ZM84.8235 190.147C84.8235 191.036 85.3298 191.481 86.3424 191.481H88.2689C89.9483 191.481 91.3314 191.073 92.418 190.258C93.5294 189.418 94.0851 188.208 94.0851 186.628C94.0851 184.775 93.5665 183.429 92.5292 182.589C91.4919 181.725 90.1582 181.293 88.5282 181.293H84.8235V190.147ZM88.9357 194.111H80.8966V171.513C80.8966 170.747 80.8349 170.228 80.7114 169.957C80.5879 169.66 80.3533 169.463 80.0075 169.364C79.5877 169.24 79.2542 169.092 79.0073 168.919C78.7603 168.746 78.6368 168.499 78.6368 168.178C78.6368 167.561 79.0567 167.252 79.8964 167.252H88.5652C91.2326 167.252 93.3072 167.82 94.789 168.956C96.2709 170.092 97.0118 171.71 97.0118 173.809C97.0118 175.316 96.629 176.6 95.8634 177.662C95.1224 178.7 94.3074 179.379 93.4183 179.7C94.6779 180.021 95.7893 180.774 96.7525 181.96C97.7157 183.145 98.1973 184.701 98.1973 186.628C98.1973 188.875 97.4317 190.69 95.9004 192.073C94.3692 193.432 92.0476 194.111 88.9357 194.111ZM106.35 194.111H102.386V171.513C102.386 170.747 102.337 170.241 102.238 169.994C102.139 169.722 101.929 169.524 101.608 169.401C101.163 169.253 100.768 169.117 100.423 168.993C100.101 168.845 99.9409 168.598 99.9409 168.253C99.9409 167.586 100.423 167.252 101.386 167.252H104.979C105.893 167.252 106.35 167.647 106.35 168.438V194.111Z" fill="url(#paint2_linear_388_31307)"/>
<defs>
<linearGradient id="paint0_linear_388_31307" x1="0" y1="0" x2="111.801" y2="28.0975" gradientUnits="userSpaceOnUse">
<stop stop-color="#1A3C40"/>
<stop offset="0.317708" stop-color="#1D5960"/>
<stop offset="0.75" stop-color="#1D5960"/>
<stop offset="1" stop-color="#1A3C40"/>
</linearGradient>
<linearGradient id="paint1_linear_388_31307" x1="45.5195" y1="20.6597" x2="134.588" y2="41.0618" gradientUnits="userSpaceOnUse">
<stop stop-color="#1A3C40"/>
<stop offset="0.317708" stop-color="#1D5960"/>
<stop offset="0.75" stop-color="#1D5960"/>
<stop offset="1" stop-color="#1A3C40"/>
</linearGradient>
<linearGradient id="paint2_linear_388_31307" x1="11" y1="162" x2="83.6381" y2="222.687" gradientUnits="userSpaceOnUse">
<stop stop-color="#1A3C40"/>
<stop offset="0.317708" stop-color="#1D5960"/>
<stop offset="0.75" stop-color="#1D5960"/>
<stop offset="1" stop-color="#1A3C40"/>
</linearGradient>
<clipPath id="clip0_388_31307">
<rect width="120" height="126" fill="white"/>
</clipPath>
</defs>
</svg>
