<svg width="121" height="207" viewBox="0 0 121 207" fill="none" xmlns="http://www.w3.org/2000/svg">
<path d="M101.874 0L72.9325 65.7556L89.6492 95.2993L67.7924 147.834H61.3789" fill="#3B3B3B"/>
<path d="M20.8594 0L49.8011 65.7556L33.1075 95.2993L54.9411 147.834H61.3778" fill="#3B3B3B"/>
<path d="M0 207V183.04H4.97215C8.3759 183.04 10.8675 183.296 12.447 183.808C14.0488 184.297 15.4281 185.087 16.5849 186.177C17.7418 187.245 18.6316 188.557 19.2545 190.115C19.8775 191.672 20.1889 193.496 20.1889 195.587C20.1889 197.656 19.6995 199.614 18.7206 201.461C17.764 203.285 16.4515 204.664 14.783 205.598C13.1367 206.533 10.7563 207 7.64175 207H0ZM2.30254 204.731H5.07226C7.96433 204.731 10.0555 204.586 11.3458 204.297C12.6584 204.008 13.8041 203.44 14.783 202.595C15.7618 201.728 16.5071 200.682 17.0188 199.458C17.5304 198.235 17.7863 196.833 17.7863 195.254C17.7863 193.674 17.4859 192.217 16.8853 190.882C16.3069 189.547 15.4726 188.446 14.3825 187.579C13.2924 186.711 12.0021 186.133 10.5116 185.843C9.0433 185.532 6.87424 185.376 4.00441 185.376H2.30254V204.731Z" fill="#6B6B6B"/>
<path d="M31.6395 183.04H34.0756V193.085H46.2557V183.04H48.6583V207H46.2557V195.421H34.0756V207H31.6395V183.04Z" fill="#6B6B6B"/>
<path d="M71.1036 182.073L82.2826 207H79.7131L75.9423 198.824H65.5975L61.8601 207H59.1905L70.5029 182.073H71.1036ZM70.8033 187.378L66.6987 196.388H74.8744L70.8033 187.378Z" fill="#6B6B6B"/>
<path d="M92.9021 183.04H97.6407C100.155 183.04 102.057 183.552 103.347 184.575C104.66 185.576 105.316 187.022 105.316 188.913C105.316 189.959 105.049 190.927 104.515 191.817C104.003 192.684 103.247 193.385 102.246 193.919C103.892 194.453 105.138 195.254 105.983 196.322C106.851 197.389 107.285 198.657 107.285 200.126C107.285 202.106 106.562 203.752 105.116 205.065C103.67 206.355 101.801 207 99.5094 207H92.9021V183.04ZM95.2714 185.376V193.051H96.6395C98.7307 193.051 100.288 192.718 101.311 192.05C102.335 191.383 102.846 190.337 102.846 188.913C102.846 186.555 101.245 185.376 98.0411 185.376H95.2714ZM95.2714 195.454V204.664H98.2413C99.9543 204.664 101.211 204.497 102.012 204.164C102.835 203.808 103.503 203.274 104.014 202.562C104.526 201.828 104.782 201.082 104.782 200.326C104.782 199.57 104.637 198.902 104.348 198.324C104.059 197.745 103.625 197.234 103.047 196.789C102.49 196.344 101.812 196.01 101.011 195.788C100.232 195.565 98.7641 195.454 96.6062 195.454H95.2714Z" fill="#6B6B6B"/>
<path d="M118.504 183.04H120.907V207H118.504V183.04Z" fill="#6B6B6B"/>
</svg>
